# xmcd
#
# Track frame offsets: 
#        150
#        13840
#        29088
#        42910
#        57465
#        70850
#        84818
#        98410
#        111955
#        126393
#        140020
#        154778
#        168788
#        181935
#
# Disc length: 2617 seconds
#
# Revision: 2
# Processed by: cddbd v1.5.2PL0 Copyright (c) Steve Scherf et al.
# Submitted via: ExactAudioCopy v1.0b3
#
DISCID=b90a370e
DTITLE=Various Artist - Please Warm My Weiner (Old Time Hokum Blues)
DYEAR=1992
DGENRE=Blues
TTITLE0=Whistling Bob Howe and Frankie Griggs - Coldest Stuff In Town 
TTITLE0=(1935), The
TTITLE1=Rufus and Ben Quillian - Satisfaction Blues (1930)
TTITLE2=Memphis Minnie - Banana Man Blues (1934)
TTITLE3=Butterbeans and Susie - Elevator Papa, Switchboard Mama (1930)
TTITLE4=Tommy Bradley and James Cole - Adam and Eve (1930)
TTITLE5=Robert and Charlie Hicks - Darktown Gambling - The Crap Game (
TTITLE5=1930)
TTITLE6=The Hokum Boys - I Had To Give Up Gym (1929)
TTITLE7=Bo Carter - Please Warm My Weiner (1935)
TTITLE8=Papa Charlie Jackson - You Put It In, I'll Take It Out (1934)
TTITLE9=The Yazoo All Stars - Hometown Skiffle Part 1 (1929)
TTITLE10=The Yazoo All Stars - Hometown Skiffle Part 2 (1929)
TTITLE11=Buddie Burton - Ham Fatchet Blues Part 1 (1928)
TTITLE12=Leola B. and Kid Wesley Wilson - Uncle Joe (1929)
TTITLE13=Georgia Tom (Thomas A. Dorsey) and Tampa Red - Alley Crap Gam
TTITLE13=e (1928), The
EXTD=Yazoo 1043
EXTT0=
EXTT1=
EXTT2=
EXTT3=
EXTT4=
EXTT5=
EXTT6=
EXTT7=
EXTT8=
EXTT9=
EXTT10=
EXTT11=
EXTT12=
EXTT13=
PLAYORDER=
